<svg class="brand-logo" xmlns="http://www.w3.org/2000/svg" viewBox="0 0 193.33 41.23">
  <g>
    <path d="M169.29,169.6a43.17,43.17,0,0,1,6.39-1c2.64-.2,4,.81,4.65,2.3.24.58.15,1.06-1,1.06-2.25,0-7.39,1.15-10.12,1.87-1.4.33-2,.33-2.69-.63a11.55,11.55,0,0,1-1.3-2.06,3.69,3.69,0,0,1,.14-2.93c2.31-5.86,10.23-20.26,13.21-24.29.76-1.06,1.34-.72,1.82.15a4.58,4.58,0,0,1,.43,2,10.6,10.6,0,0,1-1.63,5C175.05,158.61,171.93,164,169.29,169.6Z" transform="translate(-165.02 -142.67)"/>
    <path d="M189.5,166.53a6.2,6.2,0,0,1-3.41-1.06,10.48,10.48,0,0,0-.43,2.84c0,2.11.86,3.6,2.31,3.6,3.64,0,6.86-3.56,8.83-6.53.53-.77,1.15-.87,1.53.09a4.07,4.07,0,0,1-.67,3.12,12.49,12.49,0,0,1-9.6,5.24c-4.46,0-6.91-2.88-6.91-6.73a11.94,11.94,0,0,1,1.49-5.52c2.49-5.08,6.38-7.63,9.17-7.63a3.1,3.1,0,0,1,1.68.39,8.64,8.64,0,0,1,3,2.49,3.47,3.47,0,0,1,.48,1.78C196.94,161.49,193.73,166.53,189.5,166.53Zm-2.73-2.88a1.92,1.92,0,0,0,1,.33c1.15,0,2.69-1.44,3.65-2.73,1.39-1.87,2.4-4.13,1.87-4.56C192.62,156.11,189.07,159,186.77,163.65Z" transform="translate(-165.02 -142.67)"/>
    <path d="M197,163.22c1-.82,1.68-.58,1.82.57,1.59-2.25,3.27-4.75,4.52-6.81a5.13,5.13,0,0,1,1.87-3.75,3.74,3.74,0,0,1,2.35-1c1.3,0,1.58,1.06.1,3.51-.05.57-.1,1.39-.1,2,0,3.41.62,6.53.53,9.13a9.2,9.2,0,0,1-.82,3.6,10.47,10.47,0,0,0,4.18-5.28c.43-1.11,1.15-.77,1.49,0a3.89,3.89,0,0,1-.48,3.31,10.3,10.3,0,0,1-8.79,5.33c-2.88.09-5.76-.68-7.39-3.7a6.45,6.45,0,0,1-.82-3.17A4.83,4.83,0,0,1,197,163.22Zm6.48,2.83c0-1.54-.05-3.07-.14-4.37-1.16,1.82-2.5,3.89-3.94,5.95.57,2.26,1.58,3.94,2.64,3.94S203.47,169.17,203.47,166.05Z" transform="translate(-165.02 -142.67)"/>
    <path d="M241.44,163.07a3.94,3.94,0,0,1,.33,1.59c0,2.78-2.59,5.57-4.32,6.86a10.64,10.64,0,0,1-6.19,2,8.61,8.61,0,0,1-4.22-1c-2.26-1.2-4.23-4.22-4.32-8.16-.2-9.7,8.4-18.38,13.82-20.83a11,11,0,0,1,3.79-.82,4.87,4.87,0,0,1,3.12,1c1.64,1.44,2.88,3.31,2.88,5.18a6.22,6.22,0,0,1-.67,2.79,32.75,32.75,0,0,0-1.82,4.32,1.15,1.15,0,0,1-1.87.72,3.57,3.57,0,0,1-1.64-3.07,6,6,0,0,1,.29-1.78,19.77,19.77,0,0,1,.82-2.21c.67-1.68,1.25-3.21.67-3.84-1.15-1.25-8,2.93-12,9.36a20.39,20.39,0,0,0-3,10.23c0,4.13,1.83,6,3.55,6,2.64,0,6-3.07,8.84-8.4A1,1,0,0,1,241.44,163.07Z" transform="translate(-165.02 -142.67)"/>
    <path d="M255.93,153.9a3.13,3.13,0,0,1,3.22,2.12l.91-1.49c.58-1,1.39-1,2-.34.81,1,1.25,3.07,0,5.57s-5.28,7.87-5.28,11.09c0,.72.19,1.15.67,1.15,1.73,0,4.13-3.26,5.71-6.38.53-1,1-1,1.44,0a4,4,0,0,1-.19,3.12c-1.25,2.64-4.32,5.18-7.25,5.18-2.4,0-3.79-1.25-4.17-3-1.4,1.34-3.56,2.83-5.48,2.83-2.83,0-4.36-2.06-4.36-4.9a12.94,12.94,0,0,1,2.59-7.15C249.55,156.16,253.48,153.9,255.93,153.9Zm-1.68,10.76c1.87-3.27,2.74-5.62,2.74-6.87,0-.57-.1-.91-.58-.91-1,0-4.27,3-6.72,7a13.5,13.5,0,0,0-2.25,6.34c0,.86.19,1.44.67,1.44C249.69,171.62,251.9,168.69,254.25,164.66Z" transform="translate(-165.02 -142.67)"/>
    <path d="M278.3,166.24a16.51,16.51,0,0,1-4.27,6c3.55-.72,6.29-3.89,7.68-6.67.58-1.11,1.58-.87,1.78.09a5.15,5.15,0,0,1-.68,3.27c-2.16,3.89-6.19,5.23-10.17,5.23-3.8,0-6.15-1.3-7.25-3.89-2.11,3.94-4.18,8.07-6.19,12.77-.39.86-1,1.06-1.45.48a3.71,3.71,0,0,1-1-2.59,10.36,10.36,0,0,1,.58-3.12c1.39-4.56,9.31-19.49,12.29-23.48.86-1,1.49-.86,1.87-.33a2.88,2.88,0,0,1,.48,1.77,7.36,7.36,0,0,1,3.89-1.44c2.88,0,4.27,2.6,4.27,5A16.81,16.81,0,0,1,278.3,166.24Zm-9.65-1.87c-1.49,3.07-1.15,6.53.1,6.53,1.49,0,3.65-2.64,5.61-6.63a15,15,0,0,0,1.73-6.29c0-.86-.09-1.44-.33-1.53-.87-.39-3.51,1.82-5.57,5.33Z" transform="translate(-165.02 -142.67)"/>
    <path d="M282.19,163.22c1-.82,1.68-.58,1.82.57,1.59-2.25,3.27-4.75,4.51-6.81a5.17,5.17,0,0,1,1.88-3.75,3.72,3.72,0,0,1,2.35-1c1.29,0,1.58,1.06.09,3.51,0,.57-.09,1.39-.09,2,0,3.41.62,6.53.53,9.13a9.2,9.2,0,0,1-.82,3.6,10.47,10.47,0,0,0,4.18-5.28c.43-1.11,1.15-.77,1.48,0a3.85,3.85,0,0,1-.48,3.31,10.27,10.27,0,0,1-8.78,5.33c-2.88.09-5.76-.68-7.39-3.7a6.45,6.45,0,0,1-.82-3.17A4.83,4.83,0,0,1,282.19,163.22Zm6.48,2.83c0-1.54-.05-3.07-.15-4.37-1.15,1.82-2.49,3.89-3.93,5.95.57,2.26,1.58,3.94,2.64,3.94S288.67,169.17,288.67,166.05Z" transform="translate(-165.02 -142.67)"/>
    <path d="M309.4,173.92c-2.83,0-4.27-1.39-4.46-3.55-1.63,1.82-3.79,3.31-6.24,3.31s-3.41-1.82-3.41-3.89a9.41,9.41,0,0,1,.62-3.31,54.49,54.49,0,0,1,6.48-12,1.22,1.22,0,0,1,2.07,0,3.56,3.56,0,0,1,.72,2.21c0,2-3.51,7.53-5.19,11.23-.86,1.92-1,3.7.05,3.7,1.25,0,3.79-3.27,6.24-7.11,2.84-4.61,4.08-7.87,5.81-10.08.67-.91,1.44-1.1,2-.29a4.07,4.07,0,0,1,.72,2.5c0,1.63-1,3.74-2.69,6.53-1.39,2.25-3.26,5.52-3.26,7.39,0,.87.28,1.35.91,1.35,1.58,0,4-3.32,5.76-6.34.48-.82,1.29-1,1.68,0a4.26,4.26,0,0,1-.34,3.22C315.5,171.47,312.38,173.92,309.4,173.92Z" transform="translate(-165.02 -142.67)"/>
    <path d="M331.67,149.34c-1.48,5.72-6.72,11.38-10.94,14.21a18.76,18.76,0,0,0-1.58,6.29c0,1.15.28,2,.91,2,2.21,0,5-3.22,6.82-6.67.62-1.2,1.67-1.2,2,.05a4.62,4.62,0,0,1-.48,3.12c-.72,1.44-4.27,5.37-8.3,5.37-2.93,0-4.76-1.68-4.76-5a11.52,11.52,0,0,1,.34-2.74c1.87-8,7.3-16.85,12-21.79.91-.91,1.78-1.2,2.69-.34a4.69,4.69,0,0,1,1.58,3.51A6.06,6.06,0,0,1,331.67,149.34Zm-5.47,3.8c-1.25,2.11-3.36,5.71-3.69,6.52a30.38,30.38,0,0,0,4.8-6.09c1.63-2.74,2.25-4.85,2-5S327.83,150.3,326.2,153.14Z" transform="translate(-165.02 -142.67)"/>
    <path d="M334.75,166.53a6.15,6.15,0,0,1-3.41-1.06,10.1,10.1,0,0,0-.43,2.84c0,2.11.86,3.6,2.3,3.6,3.65,0,6.87-3.56,8.83-6.53.53-.77,1.16-.87,1.54.09a4.17,4.17,0,0,1-.67,3.12,12.52,12.52,0,0,1-9.6,5.24c-4.47,0-6.92-2.88-6.92-6.73a11.94,11.94,0,0,1,1.49-5.52c2.5-5.08,6.39-7.63,9.17-7.63a3.1,3.1,0,0,1,1.68.39,8.59,8.59,0,0,1,3,2.49,3.47,3.47,0,0,1,.48,1.78C342.19,161.49,339,166.53,334.75,166.53ZM332,163.65a1.92,1.92,0,0,0,1.06.33c1.15,0,2.68-1.44,3.64-2.73,1.4-1.87,2.41-4.13,1.88-4.56C337.87,156.11,334.31,159,332,163.65Z" transform="translate(-165.02 -142.67)"/>
    <path d="M342.23,163.22c1-.82,1.68-.58,1.83.57,1.58-2.25,3.26-4.75,4.51-6.81a5.16,5.16,0,0,1,1.87-3.75,3.77,3.77,0,0,1,2.35-1c1.3,0,1.59,1.06.1,3.51-.05.57-.1,1.39-.1,2,0,3.41.63,6.53.53,9.13a9,9,0,0,1-.81,3.6,10.45,10.45,0,0,0,4.17-5.28c.44-1.11,1.15-.77,1.49,0a3.85,3.85,0,0,1-.48,3.31,10.27,10.27,0,0,1-8.78,5.33c-2.88.09-5.76-.68-7.4-3.7a6.55,6.55,0,0,1-.81-3.17A4.86,4.86,0,0,1,342.23,163.22Zm6.48,2.83c0-1.54,0-3.07-.14-4.37-1.15,1.82-2.5,3.89-3.94,5.95.58,2.26,1.59,3.94,2.64,3.94S348.71,169.17,348.71,166.05Z" transform="translate(-165.02 -142.67)"/>
  </g>
</svg>
