<svg class="brand-logo" xmlns="http://www.w3.org/2000/svg" viewBox="0 0 453.46 459.67">
    <title>logo-capsules</title>
    <path d="M400.09,98.53c-102,0-184.69,82.69-184.69,184.7s82.69,184.7,184.69,184.7a184.7,184.7,0,0,0,0-369.4Zm0,363.14A178.44,178.44,0,1,1,578.54,283.23,178.44,178.44,0,0,1,400.09,461.67ZM624,312.45c-5.76-8.22-6.35-16.62-6.13-27.57,0,0-.11-6.7.73-15.76s1.71-12.51,5-17.6,5.15-11.65-3.07-17.41-11.65-13.45-15.19-23.82c0,0-2.39-6.25-4.7-15s-2.68-12.34-1.36-18.23.85-12.72-8.84-15.31S574.84,153,568,144.51A157,157,0,0,1,558.41,132c-5.18-7.48-6.74-10.67-7.52-16.67s-3.55-12.23-13.54-11.36-17.57-2.81-27-8.48c0,0-5.85-3.25-13.27-8.51s-10-7.73-12.77-13.09-7.52-10.29-16.61-6-17.48,3.36-28.22,1.25c0,0-6.61-1.06-15.39-3.46s-12-3.85-16.47-7.94-10.58-7.09-17.68,0S374.72,66.8,363.9,68.48c0,0-6.57,1.27-15.64,2s-12.62.49-18.2-1.83-12.37-3-16.61,6-11.22,13.81-20.82,19.09a156.7,156.7,0,0,1-14,7.25c-8.27,3.8-11.68,4.78-17.72,4.5s-12.66,1.37-13.54,11.37-5.82,16.81-13,25.06c0,0-4.22,5.2-10.69,11.6s-9.34,8.49-15.11,10.3-11.43,5.61-8.83,15.3.27,17.8-3.68,28a157.18,157.18,0,0,1-6.08,14.55c-3.89,8.23-5.87,11.18-10.67,14.85s-8.83,9.19-3.07,17.41,6.35,16.62,6.12,27.57a157.18,157.18,0,0,1-.73,15.76c-.84,9.06-1.7,12.51-5,17.6s-5.15,11.65,3.07,17.41,11.65,13.45,15.19,23.81c0,0,2.39,6.25,4.69,15.06s2.68,12.34,1.37,18.23-.86,12.71,8.84,15.31,15.55,8.66,22.41,17.19c0,0,4.39,5.05,9.57,12.54s6.74,10.67,7.52,16.67,3.54,12.23,13.54,11.36,17.57,2.81,26.94,8.48c0,0,5.85,3.25,13.28,8.51s10,7.73,12.77,13.09,7.51,10.29,16.61,6,17.47-3.37,28.22-1.25c0,0,6.61,1.06,15.38,3.46s12,3.85,16.48,7.94,10.58,7.09,17.67,0,15.27-9.14,26.1-10.82a157.64,157.64,0,0,1,15.64-2c9.07-.74,12.61-.5,18.19,1.83s12.37,3,16.61-6.05,11.23-13.81,20.82-19.09c0,0,5.74-3.45,14-7.25s11.69-4.78,17.72-4.51,12.67-1.36,13.54-11.36,5.83-16.81,13-25.06c0,0,4.21-5.2,10.68-11.6s9.35-8.49,15.11-10.3,11.44-5.61,8.84-15.3-.28-17.8,3.68-28c0,0,2.18-6.33,6.07-14.56s5.88-11.17,10.68-14.84S629.74,320.67,624,312.45Zm-19.33-90.1c-4.11,1.74-7.17,5-11.78,2.63a18.75,18.75,0,0,1-10-12.95c-1.46-6.43-.78-10.31,1.39-12.93s5.75-3.27,10.93-5C595.18,194.07,601.66,210.63,604.66,222.35Zm-60.29-81.16c1.13-3.2,4.28-5,8.55-8.47,0,0,11.75,13.34,18.58,23.34-3.27,3-5,7.12-10.17,6.5a18.73,18.73,0,0,1-13.84-8.74C543.92,148.27,543.23,144.39,544.37,141.19ZM492.23,89.53s15.6,8.52,25.44,15.57c-2,4-2.3,8.42-7.34,9.59a18.76,18.76,0,0,1-16-3.48c-5.24-4-7.22-7.4-7.25-10.8S489.38,94.21,492.23,89.53ZM420.42,69.7s17.58,2.67,29.24,5.93c-.55,4.43.71,8.7-3.62,11.52a18.74,18.74,0,0,1-16.22,2.2c-6.3-1.95-9.32-4.49-10.51-7.66S419.35,75.07,420.42,69.7Zm-44.76,1.5c1,4.35,3.65,7.92.54,12.06a18.73,18.73,0,0,1-14.49,7.62c-6.58.32-10.29-1-12.49-3.61S347,81,346.16,75.62C346.16,75.62,363.59,72.12,375.66,71.2Zm-71,21.14c2.42,3.75,6.13,6.2,4.63,11.15a18.73,18.73,0,0,1-11,12.11c-6.08,2.56-10,2.56-13,.88s-4.22-5.09-6.85-9.89C278.41,106.59,293.59,97.33,304.62,92.34Zm-59.53,44.17c3.56,2.69,7.89,3.73,8.17,8.89a18.77,18.77,0,0,1-6.21,15.15c-4.84,4.47-8.54,5.82-11.89,5.26s-5.71-3.34-9.83-6.95C225.33,158.86,236.43,145,245.09,136.51Zm-40.84,61.86c4.27,1.31,8.69.81,10.72,5.56a18.74,18.74,0,0,1-.65,16.36c-3,5.86-6,8.4-9.37,9s-6.51-1.19-11.62-3.18C193.33,226.13,199,209.28,204.25,198.37Zm-8.73,145.74c4.12-1.74,7.18-5,11.79-2.63a18.77,18.77,0,0,1,10,12.95c1.46,6.42.77,10.31-1.39,12.93s-5.75,3.27-10.94,5C205,372.39,198.53,355.83,195.52,344.11Zm60.3,81.16c-1.13,3.2-4.28,5-8.56,8.47,0,0-11.74-13.35-18.58-23.34,3.27-3,5-7.12,10.18-6.5a18.77,18.77,0,0,1,13.84,8.74C256.27,418.18,257,422.07,255.82,425.27ZM308,476.93s-15.61-8.52-25.44-15.57c2-4,2.3-8.42,7.34-9.59a18.75,18.75,0,0,1,16,3.48c5.25,4,7.22,7.4,7.25,10.8S310.8,472.25,308,476.93Zm71.81,19.83s-17.58-2.67-29.24-5.93c.55-4.43-.71-8.7,3.62-11.52a18.74,18.74,0,0,1,16.22-2.2c6.29,1.95,9.32,4.48,10.51,7.66S380.84,491.39,379.77,496.76Zm44.75-1.5c-1-4.35-3.64-7.93-.54-12.06a18.76,18.76,0,0,1,14.49-7.62c6.59-.32,10.29,1,12.5,3.61s2.22,6.23,3,11.65C454,490.84,436.59,494.34,424.52,495.26Zm71.05-21.14c-2.43-3.75-6.14-6.2-4.64-11.15a18.77,18.77,0,0,1,11-12.11c6.07-2.56,10-2.56,13-.89s4.23,5.1,6.86,9.9C521.78,459.87,506.59,469.12,495.57,474.12ZM555.1,430c-3.56-2.69-7.89-3.73-8.17-8.89a18.78,18.78,0,0,1,6.2-15.15c4.84-4.48,8.55-5.83,11.9-5.27s5.71,3.35,9.82,7C574.85,407.6,563.75,421.49,555.1,430Zm40.83-61.86c-4.26-1.31-8.68-.81-10.72-5.56a18.81,18.81,0,0,1,.65-16.36c3-5.86,6-8.4,9.38-9s6.51,1.19,11.61,3.18C606.85,340.33,601.17,357.18,595.93,368.09Zm23.83-47.59c-1,5.68-13.89,3.29-22.94,7.55s-12.24,8.47-16.29,19l-1.62,4s-4.53,12.66,1.48,22.93,16.26,14.39,13.38,19.39-14.18-1.66-24.15-.75-14.39,3.77-21.8,12.27l-2.9,3.23s-8.58,10.34-6.45,22.05,10.36,19.09,5.94,22.8-12.75-6.41-22.43-9-14.81-1.38-24.68,4.07l-3.83,2s-11.61,6.78-13.61,18.52,3.22,21.48-2.21,23.45-9.79-10.38-18-16.09-13.45-6.37-24.59-4.62l-4.29.61s-13.23,2.41-19.12,12.75S407.31,506,401.54,506s-5.66-13.11-11.43-21.28S379.65,474.17,368.59,472l-4.25-.89s-13.25-2.27-22.32,5.43-11.35,18.52-16.77,16.55-.83-14.25-3.46-23.91-6.21-13.52-15.87-19.34l-3.68-2.29s-11.68-6.66-22.84-2.53-17,13.52-21.42,9.81,4.1-13.67,4.93-23.64-1.21-14.83-8.29-23.6l-2.68-3.42s-8.69-10.25-20.6-10.18-20.59,6.89-23.48,1.89,8.53-11.45,12.72-20.53,3.94-14.35.28-25l-1.35-4.12s-4.66-12.61-15.87-16.62-21.71-.57-22.71-6.25,11.92-7.84,19-14.95,8.61-12.14,8.82-23.41l.14-4.33s-.07-13.45-9.23-21-20.21-8-19.21-13.64,13.89-3.29,23-7.55,12.24-8.47,16.29-19l1.62-4s4.53-12.66-1.48-22.93-16.27-14.39-13.38-19.39,14.18,1.66,24.14.75,14.4-3.77,21.8-12.27l2.9-3.23s8.59-10.34,6.46-22.05-10.37-19.09-6-22.8,12.76,6.41,22.43,9,14.82,1.38,24.69-4.07l3.83-2s11.6-6.79,13.6-18.52-3.21-21.48,2.21-23.45,9.8,10.38,18,16.09,13.45,6.37,24.58,4.62l4.3-.61s13.23-2.41,19.12-12.75,4.33-21.28,10.1-21.28,5.65,13.1,11.42,21.28,10.47,10.58,21.53,12.75l4.24.89s13.25,2.27,22.33-5.43,11.35-18.52,16.77-16.55.83,14.25,3.46,23.91,6.21,13.52,15.86,19.34l3.69,2.29s11.67,6.66,22.83,2.53,17-13.52,21.42-9.81-4.09,13.67-4.93,23.64,1.21,14.83,8.3,23.6l2.67,3.42s8.7,10.25,20.6,10.18,20.6-6.89,23.48-1.89S583.8,182,579.6,191.11s-3.93,14.35-.27,25l1.34,4.12s4.67,12.61,15.88,16.62,21.71.57,22.71,6.25-11.93,7.84-19,14.94-8.6,12.14-8.81,23.41l-.15,4.34s.07,13.45,9.23,21S620.76,314.81,619.76,320.5ZM187,270.47c4.46-.23,8.44-2.22,12,1.56a18.73,18.73,0,0,1,5,15.59c-.83,6.54-2.8,10-5.73,11.68s-6.52,1.11-12,1C186.27,300.29,185.85,282.52,187,270.47ZM613.15,296c-4.46.23-8.44,2.21-12-1.56a18.76,18.76,0,0,1-5-15.59c.83-6.54,2.8-10,5.72-11.68s6.53-1.11,12-1C613.91,266.17,614.33,283.94,613.15,296Z"
          transform="translate(-173.36 -53.39)"/>
    <path d="M338.12,260.4a104.38,104.38,0,0,1,14.37-6.82c6.11-2.24,10.08-.81,12.56,2.29,1,1.2,1.06,2.39-1.55,3.14-5.36,1.42-16.69,7.73-22.67,11.29-3.06,1.74-4.53,2.16-6.77.35a29.64,29.64,0,0,1-4.46-4c-1.38-1.82-1.9-3.63-1.64-7,1.47-15.4,10.43-54.79,14.73-66.34,1.1-3,2.69-2.61,4.41-.89a11.27,11.27,0,0,1,2.35,4.36c.81,2.83.93,7.09-.47,12.9C344.28,230.52,340.55,245.34,338.12,260.4Z"
          transform="translate(-173.36 -53.39)"/>
    <path d="M383.79,239.45a15.21,15.21,0,0,1-8.77-.19,24.91,24.91,0,0,0,.9,7c1.43,5,4.48,7.92,7.88,6.94,8.62-2.47,13.82-13,16.45-21.41.73-2.17,2.14-2.82,3.69-.81a10.12,10.12,0,0,1,.53,7.82c-2.78,8.29-10.32,16.22-19.14,18.87-10.52,3.14-18.28-2.12-20.89-11.19a29.36,29.36,0,0,1-.22-14.05c2.45-13.72,9.91-22.37,16.49-24.25a7.56,7.56,0,0,1,4.23-.23,21.5,21.5,0,0,1,8.73,3.88,8.57,8.57,0,0,1,2.33,3.87C398,222.5,393.77,236.58,383.79,239.45Zm-8.42-4.95a4.82,4.82,0,0,0,2.73.07c2.72-.78,5.37-5.22,6.76-8.93,2-5.37,2.88-11.38,1.34-12C384.1,212.72,377.7,222,375.37,234.5Z"
          transform="translate(-173.36 -53.39)"/>
    <path d="M399.24,226.55c1.72-2.58,3.58-2.5,4.7.12,2.22-6.4,4.49-13.44,6.05-19.16-.72-4.22-.11-7.22,1.88-10.12a9.09,9.09,0,0,1,4.88-4c3.06-.88,4.46,1.42,2.6,8.21.27,1.4.71,3.36,1.14,4.83,2.3,8,5.89,15,7.42,21.19a22.42,22.42,0,0,1,.51,9.06,25.6,25.6,0,0,0,6.3-15.3c.27-2.91,2.2-2.6,3.51-1,.89,1,2.15,4,1.11,8.15a25.24,25.24,0,0,1-17.15,18.54c-6.74,2.18-14.06,2.32-20-3.72a16,16,0,0,1-4.07-6.94A11.89,11.89,0,0,1,399.24,226.55Zm17.23,2.3c-1-3.63-2.19-7.23-3.3-10.23-1.48,5.09-3.26,10.88-5.27,16.74,2.89,4.94,6.41,8.22,8.91,7.51S418.59,236.22,416.47,228.85Z"
          transform="translate(-173.36 -53.39)"/>
    <path d="M293.32,349.14a9.59,9.59,0,0,1,1.86,3.51c1.89,6.58-2.35,14.92-5.55,19.15a26.14,26.14,0,0,1-13.3,8.85,21.23,21.23,0,0,1-10.67.48c-6.14-1.31-12.84-7.12-15.73-16.36-7-22.78,7.39-49.13,18.55-58.59a27,27,0,0,1,8.4-4.5,12,12,0,0,1,8.06.27c4.83,2.3,9.05,5.87,10.32,10.3a15.41,15.41,0,0,1,.3,7,80.84,80.84,0,0,0-1.39,11.45c0,2.09-1.27,3.68-3.93,3a8.77,8.77,0,0,1-5.94-6.16,14.7,14.7,0,0,1-.52-4.39,49.82,49.82,0,0,1,.43-5.77c.45-4.43.77-8.45-1-9.53-3.56-2.17-16.84,12.32-21.9,30.22a50.16,50.16,0,0,0-.21,26.21c2.79,9.75,8.34,12.82,12.42,11.65,6.24-1.79,12.21-11.35,15.18-25.83A2.53,2.53,0,0,1,293.32,349.14Z"
          transform="translate(-173.36 -53.39)"/>
    <path d="M321.36,317.65c4.08-1.17,7.16.16,9,2.81l1.15-4.13c.71-2.66,2.6-3.33,4.42-2.13,2.58,1.72,5,6.42,3.77,13.16-1.16,7.08-7.14,22.18-5,29.78.49,1.7,1.23,2.59,2.37,2.26,4.08-1.17,7.54-10.51,9.17-18.95.6-2.63,1.58-3,3.4-1a9.77,9.77,0,0,1,1.66,7.51c-1.16,7.08-6.69,15.17-13.61,17.16-5.67,1.62-9.81-.38-11.92-4.32-2.38,4.12-6.47,9.1-11,10.4-6.69,1.92-11.72-1.92-13.64-8.61-1.4-4.88-1.18-11.81,1.28-18.66C307.8,327.31,315.58,319.31,321.36,317.65Zm3.31,26.55c2.22-9,2.66-15.13,1.82-18.08-.39-1.36-.85-2.09-2-1.76-2.27.65-8.05,10-11.16,21-1.88,6.31-2.08,12.87-1,16.5.58,2,1.43,3.27,2.56,2.95C318.62,363.73,321.85,355.32,324.67,344.2Z"
          transform="translate(-173.36 -53.39)"/>
    <path d="M382.58,331.65c-.94,7-3.22,13.19-6,17.18,7.91-4.11,12.22-13.45,13.63-21,.61-3,3.15-3.11,4.26-1a12.59,12.59,0,0,1,.62,8.17c-2.47,10.65-11.09,16.56-20.5,19.26-9,2.57-15.39,1.1-19.76-4.27-2.32,10.73-4.4,21.88-6,34.36-.32,2.3-1.55,3.15-3.08,2.11a9.13,9.13,0,0,1-4-5.47,25.35,25.35,0,0,1-.76-7.77c.2-11.71,8.8-52.36,13.14-63.79,1.32-3.08,2.93-3.05,4.19-2.06a7.17,7.17,0,0,1,2.34,3.87c2.28-2.74,5.15-5.16,8.21-6,6.81-1.95,11.85,3.24,13.51,9C383.78,319.15,383.62,325.45,382.58,331.65Zm-24.07,2.11c-1.43,8.27,1.7,16.2,4.65,15.36,3.52-1,6.83-8.71,8.78-19.46,1.2-6.11.9-12.28-.18-16-.58-2-1.2-3.34-1.83-3.4-2.3-.32-7,6.69-9.55,16.36Z"
          transform="translate(-173.36 -53.39)"/>
    <path d="M389.71,321.86c1.72-2.57,3.58-2.49,4.71.13,2.21-6.41,4.49-13.44,6-19.16-.72-4.22-.11-7.22,1.89-10.12a9.14,9.14,0,0,1,4.87-4c3.06-.87,4.46,1.43,2.6,8.22.28,1.39.72,3.35,1.14,4.83,2.31,8.05,5.9,15,7.43,21.19a22.6,22.6,0,0,1,.51,9.06,25.59,25.59,0,0,0,6.29-15.31c.27-2.9,2.2-2.59,3.52-1,.89,1,2.14,4,1.11,8.15a25.27,25.27,0,0,1-17.15,18.54c-6.74,2.18-14.07,2.32-20-3.73a15.86,15.86,0,0,1-4.08-6.93A12,12,0,0,1,389.71,321.86ZM407,324.17c-1-3.63-2.2-7.23-3.3-10.23-1.49,5.09-3.27,10.88-5.27,16.73,2.89,4.94,6.41,8.23,8.9,7.51S409.06,331.54,407,324.17Z"
          transform="translate(-173.36 -53.39)"/>
    <path d="M461.28,328.72c-6.69,1.92-11-.4-12.95-5.37-2.63,5.41-6.72,10.39-12.51,12s-9.29-2-10.68-6.87a23,23,0,0,1-.77-8.25c.44-7.86,3-20.87,7.18-32.75.92-2.35,3-2.71,4.87-1.4a8.76,8.76,0,0,1,3.2,4.73c1.34,4.65-3.17,20.18-4.64,30.05-.74,5.13.13,9.42,2.62,8.71,2.95-.85,6.75-10.29,9.93-21,3.57-12.81,4.31-21.37,6.9-27.76,1-2.61,2.65-3.58,4.57-2a10,10,0,0,1,3.39,5.41c1.1,3.86.15,9.53-1.93,17.25-1.76,6.27-4,15.25-2.71,19.67.59,2.05,1.6,3,3.07,2.56,3.74-1.07,7.28-10.56,9.32-18.87.58-2.26,2.41-3.15,3.94-1.25a10.41,10.41,0,0,1,1.38,7.82C474,318.8,468.31,326.7,461.28,328.72Z"
          transform="translate(-173.36 -53.39)"/>
    <path d="M497.26,255.55c.35,14.51-8.18,31.44-16.24,41-.61,6.44-.62,12,.52,15.93.78,2.73,2,4.46,3.49,4,5.22-1.5,9.62-11,11.59-20.39.66-3.26,3.15-4,4.79-1.25a11.39,11.39,0,0,1,1,7.7c-.72,3.89-6.45,15.6-16,18.33-6.92,2-12.37-.75-14.61-8.58a28.23,28.23,0,0,1-1.06-6.69c-1-20.1,5.82-44.76,13.59-59.63,1.54-2.77,3.38-4,6.12-2.61a11.46,11.46,0,0,1,6.12,7.2A15.68,15.68,0,0,1,497.26,255.55ZM486.9,268.22c-1.52,5.84-4.07,15.77-4.32,17.93a73.8,73.8,0,0,0,7.22-17.66c2-7.57,2-13,1.23-13.24C490.51,255.15,488.83,260.42,486.9,268.22Z"
          transform="translate(-173.36 -53.39)"/>
    <path d="M516.16,294.08a15.21,15.21,0,0,1-8.77-.19,24.91,24.91,0,0,0,.9,7c1.43,5,4.48,7.92,7.88,6.94,8.62-2.47,13.82-13,16.45-21.41.73-2.17,2.14-2.82,3.69-.81a10.12,10.12,0,0,1,.53,7.82c-2.78,8.29-10.32,16.22-19.14,18.87-10.52,3.14-18.28-2.12-20.89-11.19a29.4,29.4,0,0,1-.22-14.06c2.45-13.71,9.91-22.36,16.49-24.24a7.56,7.56,0,0,1,4.23-.23,21.5,21.5,0,0,1,8.73,3.88,8.57,8.57,0,0,1,2.33,3.87C530.33,277.12,526.14,291.21,516.16,294.08Zm-8.42-5a4.75,4.75,0,0,0,2.73.08c2.72-.78,5.37-5.22,6.76-8.93,2-5.37,2.88-11.39,1.34-12C516.48,267.35,510.07,276.67,507.74,289.12Z"
          transform="translate(-173.36 -53.39)"/>
    <path d="M531.61,281.18c1.72-2.58,3.58-2.5,4.7.12,2.22-6.4,4.49-13.44,6.05-19.16-.72-4.22-.11-7.22,1.88-10.12a9.13,9.13,0,0,1,4.88-4c3.06-.88,4.46,1.42,2.6,8.21.27,1.39.71,3.36,1.14,4.83,2.31,8.05,5.89,15,7.42,21.19a22.6,22.6,0,0,1,.52,9.06,25.59,25.59,0,0,0,6.29-15.3c.27-2.91,2.2-2.6,3.51-1,.89,1,2.15,4.05,1.11,8.15a25.23,25.23,0,0,1-17.14,18.54c-6.74,2.18-14.07,2.32-20-3.72a16,16,0,0,1-4.07-6.94A11.89,11.89,0,0,1,531.61,281.18Zm17.23,2.3c-1-3.63-2.19-7.23-3.3-10.23-1.48,5.09-3.26,10.88-5.26,16.73,2.89,4.94,6.4,8.23,8.9,7.52S551,290.85,548.84,283.48Z"
          transform="translate(-173.36 -53.39)"/>
</svg>
